<?xml version="1.0" encoding="utf-8"?>
<!-- Generator: Adobe Illustrator 24.2.3, SVG Export Plug-In . SVG Version: 6.00 Build 0)  -->
<svg version="1.1" id="图层_1" xmlns="http://www.w3.org/2000/svg" xmlns:xlink="http://www.w3.org/1999/xlink" x="0px" y="0px"
	 viewBox="0 0 523 152" style="enable-background:new 0 0 523 152;" xml:space="preserve">
<style type="text/css">
	.st0{fill:#0E090D;}
	.st1{fill:#FFFEFF;}
	.st2{fill:#D33454;}
	.st3{fill:#FFFFFF;}
</style>
<rect class="st0" width="523" height="152"/>
<polygon class="st1" points="34.25,49.08 34.25,31.25 61.75,56.42 88.75,31.58 88.75,49.58 61.58,74.42 "/>
<path class="st1" d="M34.42,51.92l16.17,15.17v19.33l6.17,5.92v1.58H41.08l-6.5-6.67C34.58,87.25,34.42,52.17,34.42,51.92z"/>
<polygon class="st1" points="88.63,52.25 72.75,66.63 72.75,87.13 79.5,94.13 458,94.13 467.5,86.5 461,32.33 449,83 88.63,83 "/>
<path class="st1" d="M118.13,31.13c0,0-22.25,0.88-22.25,23.06c0,22.23,22.25,23.44,22.25,23.44v-11c0,0-11.5-0.75-11.5-13
	c0-9.75,11.5-11.5,11.5-11.5V31.13z"/>
<path class="st1" d="M119.63,31.13c0,0,22.25,0.88,22.25,23.06c0,22.23-22.25,23.44-22.25,23.44v-11c0,0,11.5-0.75,11.5-13
	c0-9.75-11.5-11.5-11.5-11.5V31.13z"/>
<polygon class="st1" points="158.38,76.63 146.38,76.63 146.38,46 158.63,57.25 "/>
<polygon class="st1" points="146.58,44.17 146.58,30.92 184,65.08 184,78.25 "/>
<polygon class="st1" points="171.67,51.75 171.67,32.33 183.67,32.33 183.67,62.67 "/>
<path class="st1" d="M207.75,32c0,0-17.63,0.5-17.63,13s11.38,13.38,14.25,13.63s11.13,0.88,11.13,4.88s-5.83,4.42-5.83,4.42v10.25
	c0,0,18.5,0.33,18.5-12.92s-10.92-13.17-15.58-13.83c-4.67-0.67-10.17-0.33-10.17-5.25c0-4.92,5.42-4.25,5.42-4.25L207.75,32z"/>
<path class="st1" d="M190.06,63.25h11.69c0,0,0,4.81,6.25,4.63v10.38C208,78.25,190.06,79.25,190.06,63.25z"/>
<polygon class="st1" points="209.63,41.75 209.63,32.13 301.58,32.13 301.58,42.08 "/>
<rect x="233.67" y="43.25" class="st1" width="11.67" height="33.33"/>
<rect x="252" y="50.02" class="st1" width="11.67" height="26.56"/>
<rect x="290.17" y="50.02" class="st1" width="11.67" height="26.56"/>
<rect x="267.94" y="47" transform="matrix(-1.836970e-16 1 -1 -1.836970e-16 327.0067 -218.0499)" class="st1" width="9.18" height="14.95"/>
<rect x="270.43" y="62.1" transform="matrix(-1.836970e-16 1 -1 -1.836970e-16 347.0807 -202.9573)" class="st1" width="9.18" height="19.93"/>
<path class="st1" d="M303.42,42v-9.83c0,0,3.67,0,10.33,0c6.67,0,13.92,2.58,13.92,11.75c0,6.67,0,4.67,0,6
	c0,1.33-0.92,10.92-11.42,10.92s-13.08,0-13.08,0v-9c0,0,6.58,0,8.25,0c1.67,0,5.17-0.83,5.17-5c0-4.29-3.75-4.75-5.17-4.75
	C310,42.08,303.54,42.13,303.42,42z"/>
<polygon class="st1" points="307.38,62.5 319.75,62.5 329.38,77 316,77 "/>
<polygon class="st1" points="334,32.13 345.63,32.13 345.63,65 340,77 333.63,77 "/>
<polygon class="st1" points="365,32.25 341.5,76.88 373.33,76.88 369,67.58 357.42,67.58 364.33,55.33 374.83,77.17 386.5,77.17 "/>
<path class="st1" d="M371.5,41.83l-4.83-10.08c0,0,22.67,0,28.67,0s18.92,4.5,18.92,17.75s0,9.13,0,9.13s-1.13,17.88-16,17.88h-10.5
	l-4.58-9.25c0,0,7.42,0,11.42,0s8.08-4.08,8.08-10.5S402.42,42,392.08,42C381.75,42,371.5,42.08,371.5,41.83z"/>
<polygon class="st1" points="412.63,32.25 426.5,32.25 441.13,56.75 441.13,76.88 428.88,76.88 428.88,58.38 "/>
<polygon class="st1" points="435.13,44.13 442.25,55.88 456.63,32.25 442.25,32.25 "/>
<g>
	<rect x="34.5" y="104.88" class="st2" width="2.13" height="21"/>
	<rect x="42.03" y="104.88" class="st2" width="2.13" height="21"/>
	<rect x="49.57" y="104.88" class="st2" width="4.95" height="21"/>
	<rect x="59.93" y="104.88" class="st2" width="4.95" height="21"/>
	<rect x="70.28" y="104.88" class="st2" width="9.81" height="21"/>
	<rect x="85.5" y="104.88" class="st2" width="12.96" height="21"/>
	<rect x="467.95" y="104.88" class="st2" width="2.13" height="21"/>
	<rect x="460.41" y="104.88" class="st2" width="2.13" height="21"/>
	<rect x="450.05" y="104.88" class="st2" width="4.95" height="21"/>
	<rect x="439.69" y="104.88" class="st2" width="4.95" height="21"/>
	<rect x="424.48" y="104.88" class="st2" width="9.81" height="21"/>
	<rect x="406.11" y="104.88" class="st2" width="12.96" height="21"/>
	<polygon class="st2" points="228,104.88 103,104.88 103,125.88 228,125.88 276.57,125.88 401.57,125.88 401.57,104.88 
		276.57,104.88 	"/>
</g>
<g>
	<path class="st1" d="M221.72,123.36c-0.78,0.75-1.92,1.21-4.22,1.21c-2.74,0-4.22-0.7-4.9-1.92c-0.44-0.83-0.46-1.89-0.46-2.79
		v-1.02h4.1v1.36c0,0.39,0,1.36,1.21,1.36c1.16,0,1.31-0.66,1.31-1.19c0-0.7-0.02-1.07-0.19-1.36c-0.22-0.36-0.63-0.66-1.36-1.19
		l-2.48-1.8c-0.44-0.32-0.87-0.61-1.29-0.97c-0.7-0.66-1.12-1.38-1.12-3.23c0-0.27,0-0.8,0.1-1.48c0.07-0.61,0.27-2.21,1.99-2.96
		c0.92-0.41,2.28-0.51,3.25-0.51c0.78,0,1.48,0.05,2.26,0.22c1.41,0.32,1.89,1.07,2.16,1.65c0.51,1.14,0.44,2.5,0.41,3.71h-3.91
		v-1.21c0-0.87-0.1-1.43-1.16-1.43c-0.12,0-0.39,0-0.66,0.19c-0.41,0.29-0.36,0.9-0.36,1.34c0,0.46-0.02,0.9,0.24,1.26
		c0.1,0.15,0.24,0.27,0.53,0.49l3.52,2.45c0.19,0.12,0.73,0.46,1.21,0.95c0.68,0.68,1,1.43,1,3.28
		C222.91,121.11,222.76,122.37,221.72,123.36z"/>
	<path class="st1" d="M233.15,110.18v14.15h-4.2v-14.15h-3.4v-2.99h11.02v2.99H233.15z"/>
	<path class="st1" d="M250.62,121.52c-0.36,1.8-1.63,3.08-5.15,3.08c-2.94,0-4.49-0.92-5.1-2.21c-0.41-0.87-0.41-1.82-0.41-2.74
		v-12.45h4.13v12.92c0,0.05,0,0.51,0.12,0.8c0.27,0.7,1,0.73,1.19,0.73c0.12,0,0.41-0.02,0.7-0.19c0.51-0.27,0.51-0.75,0.51-1.26
		v-12.99h4.15v12.33C250.77,119.7,250.79,120.72,250.62,121.52z"/>
	<path class="st1" d="M265.36,123.12c-0.95,1.14-2.48,1.21-3.81,1.21h-6.43v-17.14h6.26c0.12,0,1.21,0,1.92,0.15
		c0.46,0.1,1.58,0.39,2.28,1.51c0.39,0.61,0.56,1.21,0.56,2.62v8.54C266.13,121.08,266.08,122.25,265.36,123.12z M261.96,111.71
		c0-0.02,0.02-0.44-0.05-0.68c-0.24-0.95-1.29-0.87-1.51-0.87h-1.26v11.22h1.31c0.44,0,0.51-0.02,0.75-0.1
		c0.7-0.19,0.75-0.78,0.75-1.36V111.71z"/>
	<path class="st1" d="M270.18,124.33v-17.14h4.15v17.14H270.18z"/>
	<path class="st1" d="M288.73,122.83c-0.78,1.02-1.99,1.72-4.56,1.72c-1.55,0-3.06-0.15-4.27-1.21c-0.22-0.19-0.7-0.66-1-1.41
		c-0.29-0.7-0.41-1.36-0.41-2.84v-7.06c0-1.21,0.1-2.18,0.8-3.23c1.12-1.65,2.94-1.94,4.78-1.94c1.48,0,2.96,0.17,4.13,1.19
		c0.29,0.27,0.83,0.8,1.14,1.72c0.29,0.87,0.29,1.75,0.29,2.65v6.55C289.63,120.38,289.6,121.66,288.73,122.83z M285.5,111.3
		c0-0.36,0-0.41-0.05-0.61c-0.19-0.73-0.85-0.78-1.46-0.78c-0.07,0-0.51-0.02-0.83,0.15c-0.58,0.29-0.51,1.19-0.51,1.24v8.79
		c0,0.68-0.05,1.46,1.41,1.46c0.07,0,0.53,0,0.85-0.15c0.53-0.27,0.58-0.8,0.58-1.31V111.3z"/>
</g>
<g>
	<path class="st3" d="M466.04,32.2c0-1.63,1.16-2.73,2.55-2.73c1.39,0,2.55,1.1,2.55,2.73c0,1.63-1.16,2.71-2.55,2.71
		C467.2,34.91,466.04,33.83,466.04,32.2z M470.7,32.2c0-1.34-0.94-2.33-2.11-2.33c-1.18,0-2.12,0.99-2.12,2.33
		c0,1.34,0.94,2.3,2.12,2.3C469.77,34.5,470.7,33.54,470.7,32.2z M467.64,30.7h0.96c0.55,0,1.07,0.21,1.07,0.9
		c0,0.36-0.24,0.69-0.55,0.78l0.69,1.21h-0.52l-0.54-1.06h-0.66v1.06h-0.44V30.7z M468.49,32.15c0.43,0,0.72-0.14,0.72-0.51
		c0-0.32-0.17-0.54-0.67-0.54h-0.45v1.05H468.49z"/>
</g>
</svg>
